<svg width="6253" height="953" viewBox="0 0 6253 953" fill="none" xmlns="http://www.w3.org/2000/svg">
<path d="M53.1319 247.328C82.4672 247.328 106.264 224.963 106.264 197.392C106.264 169.821 82.4672 147.456 53.1319 147.456C23.7965 147.418 0 169.783 0 197.354C0 224.963 23.7965 247.328 53.1319 247.328Z" fill="#3241B7"/>
<path d="M53.1319 247.328C82.4672 247.328 106.264 224.963 106.264 197.392C106.264 169.821 82.4672 147.456 53.1319 147.456C23.7965 147.418 0 169.783 0 197.354C0 224.963 23.7965 247.328 53.1319 247.328Z" fill="url(#paint0_linear)"/>
<path d="M53.1319 394.746H207.358C207.563 394.746 207.81 394.707 208.015 394.707C208.22 394.707 208.466 394.746 208.671 394.746C238.007 394.746 261.803 372.381 261.803 344.81C261.803 317.239 238.007 294.874 208.671 294.874C208.466 294.874 208.22 294.912 208.015 294.912C207.81 294.912 207.563 294.874 207.358 294.874H53.1319C23.7965 294.835 0 317.2 0 344.771C0 372.381 23.7965 394.746 53.1319 394.746Z" fill="#432AB7"/>
<path d="M53.1319 394.746H207.358C207.563 394.746 207.81 394.707 208.015 394.707C208.22 394.707 208.466 394.746 208.671 394.746C238.007 394.746 261.803 372.381 261.803 344.81C261.803 317.239 238.007 294.874 208.671 294.874C208.466 294.874 208.22 294.912 208.015 294.912C207.81 294.912 207.563 294.874 207.358 294.874H53.1319C23.7965 294.835 0 317.2 0 344.771C0 372.381 23.7965 394.746 53.1319 394.746Z" fill="url(#paint1_linear)"/>
<path d="M53.1319 589.672C23.7965 589.672 0 612.037 0 639.608C0 667.179 23.7965 689.544 53.1319 689.544C82.4672 689.544 106.264 667.179 106.264 639.608C106.264 612.037 82.5083 589.672 53.1319 589.672Z" fill="#7D32A3"/>
<path d="M53.1319 589.672C23.7965 589.672 0 612.037 0 639.608C0 667.179 23.7965 689.544 53.1319 689.544C82.4672 689.544 106.264 667.179 106.264 639.608C106.264 612.037 82.5083 589.672 53.1319 589.672Z" fill="url(#paint2_linear)"/>
<path d="M208.71 99.9107H364.29C393.625 99.9107 417.422 77.5455 417.422 49.9746C417.422 22.3652 393.625 0 364.29 0H208.71C179.374 0 155.578 22.3652 155.578 49.936C155.578 77.5455 179.374 99.9107 208.71 99.9107Z" fill="#438DBF"/>
<path d="M208.71 99.9107H364.29C393.625 99.9107 417.422 77.5455 417.422 49.9746C417.422 22.3652 393.625 0 364.29 0H208.71C179.374 0 155.578 22.3652 155.578 49.936C155.578 77.5455 179.374 99.9107 208.71 99.9107Z" fill="url(#paint3_linear)"/>
<path d="M364.29 737.089H208.71C179.374 737.089 155.578 759.455 155.578 787.025C155.578 805.303 166.081 821.267 181.672 829.982C183.026 830.715 184.38 831.409 185.816 832.064C192.75 835.188 200.504 837 208.751 837H364.331C393.667 837 417.463 814.635 417.463 787.064C417.422 759.455 393.625 737.089 364.29 737.089Z" fill="#342ABC"/>
<path d="M364.29 737.089H208.71C179.374 737.089 155.578 759.455 155.578 787.025C155.578 805.303 166.081 821.267 181.672 829.982C183.026 830.715 184.38 831.409 185.816 832.064C192.75 835.188 200.504 837 208.751 837H364.331C393.667 837 417.463 814.635 417.463 787.064C417.422 759.455 393.625 737.089 364.29 737.089Z" fill="url(#paint4_linear)"/>
<path d="M519.837 247.328C549.172 247.328 572.969 224.963 572.969 197.392C572.969 169.821 549.172 147.456 519.837 147.456C490.502 147.456 466.705 169.821 466.705 197.392C466.705 224.963 490.502 247.328 519.837 247.328Z" fill="#57C6CE"/>
<path d="M519.837 247.328C549.172 247.328 572.969 224.963 572.969 197.392C572.969 169.821 549.172 147.456 519.837 147.456C490.502 147.456 466.705 169.821 466.705 197.392C466.705 224.963 490.502 247.328 519.837 247.328Z" fill="url(#paint5_linear)"/>
<path d="M540.547 446.185C538.946 445.568 537.346 444.989 535.664 444.488C532.341 443.524 528.853 442.83 525.284 442.483C523.479 442.329 521.673 442.213 519.868 442.213H364.288C334.952 442.213 311.156 464.578 311.156 492.149C311.156 519.72 334.952 542.085 364.288 542.085H519.868C521.714 542.085 523.52 542.008 525.284 541.815C552.076 539.27 573 517.985 573 492.11C573 471.519 559.625 453.743 540.547 446.185Z" fill="#50B3C8"/>
<path d="M540.547 446.185C538.946 445.568 537.346 444.989 535.664 444.488C532.341 443.524 528.853 442.83 525.284 442.483C523.479 442.329 521.673 442.213 519.868 442.213H364.288C334.952 442.213 311.156 464.578 311.156 492.149C311.156 519.72 334.952 542.085 364.288 542.085H519.868C521.714 542.085 523.52 542.008 525.284 541.815C552.076 539.27 573 517.985 573 492.11C573 471.519 559.625 453.743 540.547 446.185Z" fill="url(#paint6_linear)"/>
<path d="M519.837 589.672C490.502 589.672 466.705 612.037 466.705 639.608C466.705 667.179 490.502 689.544 519.837 689.544C549.172 689.544 572.969 667.179 572.969 639.608C572.969 612.037 549.213 589.672 519.837 589.672Z" fill="#3F83BD"/>
<path d="M519.837 589.672C490.502 589.672 466.705 612.037 466.705 639.608C466.705 667.179 490.502 689.544 519.837 689.544C549.172 689.544 572.969 667.179 572.969 639.608C572.969 612.037 549.213 589.672 519.837 589.672Z" fill="url(#paint7_linear)"/>
<path d="M1197.1 699.865C1294.44 699.865 1363.04 637.305 1363.04 541.537C1363.73 458.914 1319.64 411.013 1246.11 380.903L1195.7 360.049C1144.6 339.195 1120.08 321.439 1120.08 281.28C1120.08 241.122 1156.49 217.963 1198.51 217.963C1237.72 217.963 1267.83 235.719 1293.03 268.927L1349.75 207.914C1313.34 159.256 1260.84 133 1199.23 133C1106.79 133 1037.5 191.707 1037.5 287.475C1037.5 362.389 1076 410.256 1155.11 441.949L1209.74 463.56C1257.34 482.865 1280.46 507.572 1280.46 546.974C1280.46 587.889 1246.86 614.937 1199.94 614.937C1151.62 614.937 1110.31 588.681 1084.42 544.668L1020 601.035C1049.36 660.464 1117.27 699.865 1197.1 699.865ZM1586 698.317C1659.53 698.317 1714.13 664.318 1745.64 608.743L1686.83 562.39C1667.93 596.389 1636.42 621.097 1586.72 621.097C1527.91 621.097 1482.4 580.181 1478.9 516.072H1754.06C1754.75 503.718 1754.75 496.767 1754.75 488.267C1754.75 363.938 1678.44 296.731 1586 296.731C1479.59 296.731 1403.25 384 1403.25 497.524C1403.25 615.66 1479.56 698.317 1586 698.317ZM1482.37 454.268C1493.57 397.111 1537.68 368.549 1583.19 368.549C1627.99 368.549 1668.61 398.659 1677 454.268H1482.37ZM2154.84 852V304.44H2077.82V356.195C2058.23 325.293 2016.21 296.731 1965.79 296.731C1869.86 296.731 1797.05 387.097 1797.05 497.524C1797.05 607.952 1869.86 698.317 1965.79 698.317C2016.21 698.317 2058.23 669.755 2077.82 638.853V852H2154.84ZM1979.8 621.062C1918.19 621.062 1875.48 567.002 1875.48 497.49C1875.48 427.978 1918.19 373.917 1979.8 373.917C2041.41 373.917 2084.12 427.978 2084.12 497.49C2084.12 567.002 2041.41 621.062 1979.8 621.062ZM2354.13 698.317C2398.93 698.317 2436.05 677.463 2456.36 638.062V690.574H2533.38V304.44H2456.36V494.427C2456.36 577.841 2421.36 621.097 2370.94 621.097C2326.15 621.097 2300.94 583.244 2300.94 521.475V304.44H2223.91V535.377C2223.91 634.208 2273.61 698.317 2354.13 698.317ZM2774.26 698.317C2847.79 698.317 2902.38 664.318 2933.89 608.743L2875.08 562.39C2856.18 596.389 2824.67 621.097 2774.97 621.097C2716.17 621.097 2670.65 580.181 2667.16 516.072H2942.31C2943 503.718 2943 496.767 2943 488.267C2943 363.938 2866.69 296.731 2774.26 296.731C2667.84 296.731 2591.5 384 2591.5 497.524C2591.5 615.66 2667.81 698.317 2774.26 698.317ZM2670.62 454.268C2681.82 397.111 2725.93 368.549 2771.45 368.549C2816.25 368.549 2856.86 398.659 2865.26 454.268H2670.62ZM3001.15 690.574H3078.17V500.587C3078.17 417.173 3117.39 373.917 3168.49 373.917C3213.29 373.917 3241.3 410.221 3241.3 471.991V690.54H3318.33V458.088C3318.33 360.015 3265.82 296.662 3184.59 296.662C3139.07 296.662 3099.86 317.516 3078.17 356.918V304.44H3001.15V690.574V690.574ZM3555.48 698.317C3628.3 698.317 3688.51 656.61 3718.61 591.744L3651.38 551.585C3634.57 590.987 3600.28 619.548 3555.45 619.548C3493.15 619.548 3449.04 566.244 3449.04 497.524C3449.04 428.804 3493.15 375.5 3555.45 375.5C3600.25 375.5 3634.57 404.062 3651.38 443.463L3718.61 403.305C3688.51 338.438 3628.3 296.731 3555.48 296.731C3450.48 296.731 3370.64 383.243 3370.64 497.524C3370.64 611.806 3450.48 698.317 3555.48 698.317ZM3926.26 698.317C3999.79 698.317 4054.38 664.318 4085.89 608.743L4027.09 562.39C4008.18 596.389 3976.67 621.097 3926.97 621.097C3868.14 621.097 3822.65 580.181 3819.13 516.072H4094.31C4095 503.718 4095 496.767 4095 488.267C4095 363.938 4018.69 296.731 3926.26 296.731C3819.81 296.731 3743.51 384 3743.51 497.524C3743.51 615.66 3819.81 698.317 3926.26 698.317ZM3822.62 454.268C3833.82 397.111 3877.93 368.549 3923.45 368.549C3968.25 368.549 4008.87 398.659 4017.26 454.268H3822.62Z" fill="white" fill-opacity="0.9"/>
<path d="M6143.06 100H4651.94C4591.22 100 4542 152.15 4542 216.48V711.52C4542 775.85 4591.22 828 4651.94 828H6143.06C6203.78 828 6253 775.85 6253 711.52V216.48C6253 152.15 6203.78 100 6143.06 100Z" fill="#3F83BD" fill-opacity="0.2"/>
<path d="M4888.83 546.022V380.977H4923.7C4965.01 380.977 4998.75 406.677 4998.75 463.7C4998.75 520.723 4965.01 546.022 4923.7 546.022H4888.83ZM4925.98 605.856C5007.09 605.856 5061.3 551.644 5061.3 463.7C5061.3 375.756 5007.09 321.143 4926.35 321.143H4828.94V605.856H4925.98ZM5175.22 463.299C5175.22 403.866 5215.4 376.961 5252.93 376.961C5290.07 376.961 5330.25 403.866 5330.25 463.299C5330.25 522.731 5290.07 549.235 5252.93 549.235C5215.4 549.235 5175.22 522.731 5175.22 463.299ZM5113.06 463.7C5113.06 553.652 5177.12 611.879 5252.93 611.879C5328.36 611.879 5392.41 553.652 5392.41 463.7C5392.41 373.347 5328.36 315.119 5252.93 315.119C5177.12 315.119 5113.06 373.347 5113.06 463.7ZM5583.67 611.879C5667.06 611.879 5702.69 551.644 5711.4 512.29L5654.18 495.023C5648.86 515.503 5630.3 548.432 5583.67 548.432C5543.5 548.432 5506.35 517.511 5506.35 464.102C5506.35 404.268 5546.9 376.961 5582.91 376.961C5630.29 376.961 5647.35 410.291 5651.52 429.968L5708 411.095C5699.28 370.134 5663.65 315.119 5582.91 315.119C5507.87 315.119 5444.19 375.355 5444.19 464.102C5444.19 552.848 5506.35 611.879 5583.67 611.879ZM5962.12 391.016C5956.44 357.686 5931.04 315.119 5863.95 315.119C5812.41 315.119 5767.68 352.867 5767.68 406.677C5767.68 448.842 5795.35 480.968 5840.83 490.204L5877.6 497.432C5895.42 501.046 5906.41 511.487 5906.41 525.943C5906.41 543.613 5892.01 555.66 5868.5 555.66C5831.74 555.66 5815.06 532.77 5812.79 506.668L5757.82 520.723C5761.61 560.88 5793.46 611.879 5867.75 611.879C5931.8 611.879 5967.05 566.502 5967.05 521.927C5967.05 481.369 5940.52 446.432 5889.35 436.393L5853.34 429.165C5834.77 425.551 5826.81 415.511 5826.81 401.858C5826.81 386.197 5841.22 371.339 5863.57 371.339C5896.17 371.339 5906.41 393.827 5908.3 407.079L5962.12 391.016Z" fill="#3F83BD"/>
<defs>
<linearGradient id="paint0_linear" x1="106.222" y1="207.518" x2="0.000101822" y2="207.518" gradientUnits="userSpaceOnUse">
<stop stop-color="#7A95F9"/>
<stop offset="1" stop-color="#7A95F9" stop-opacity="0"/>
</linearGradient>
<linearGradient id="paint1_linear" x1="261.699" y1="354.936" x2="0.000250861" y2="354.936" gradientUnits="userSpaceOnUse">
<stop stop-color="#986AF9"/>
<stop offset="1" stop-color="#986AF9" stop-opacity="0"/>
</linearGradient>
<linearGradient id="paint2_linear" x1="106.222" y1="649.734" x2="0.000101822" y2="649.734" gradientUnits="userSpaceOnUse">
<stop stop-color="#DD7AF3"/>
<stop offset="1" stop-color="#DD7AF3" stop-opacity="0"/>
</linearGradient>
<linearGradient id="paint3_linear" x1="417.318" y1="60.0851" x2="155.578" y2="60.0851" gradientUnits="userSpaceOnUse">
<stop stop-color="#98E8FB"/>
<stop offset="1" stop-color="#98E8FB" stop-opacity="0"/>
</linearGradient>
<linearGradient id="paint4_linear" x1="417.359" y1="797.175" x2="155.578" y2="797.175" gradientUnits="userSpaceOnUse">
<stop stop-color="#7E6AFA"/>
<stop offset="1" stop-color="#7E6AFA" stop-opacity="0"/>
</linearGradient>
<linearGradient id="paint5_linear" x1="572.927" y1="207.518" x2="466.705" y2="207.518" gradientUnits="userSpaceOnUse">
<stop stop-color="#B6FCFD"/>
<stop offset="1" stop-color="#B6FCFD" stop-opacity="0"/>
</linearGradient>
<linearGradient id="paint6_linear" x1="572.896" y1="502.275" x2="311.156" y2="502.275" gradientUnits="userSpaceOnUse">
<stop stop-color="#ADF8FC"/>
<stop offset="1" stop-color="#ADF8FC" stop-opacity="0"/>
</linearGradient>
<linearGradient id="paint7_linear" x1="572.927" y1="649.734" x2="466.705" y2="649.734" gradientUnits="userSpaceOnUse">
<stop stop-color="#92E2FB"/>
<stop offset="1" stop-color="#92E2FB" stop-opacity="0"/>
</linearGradient>
</defs>
</svg>
