<svg width="512" height="512" viewBox="0 0 512 512" fill="none" xmlns="http://www.w3.org/2000/svg">
<rect width="512" height="512" fill="black"/>
<path d="M173.252 192.545C183.654 192.545 192.092 184.222 192.092 173.961C192.092 163.7 183.654 155.376 173.252 155.376C162.851 155.362 154.413 163.686 154.413 173.947C154.413 184.222 162.851 192.545 173.252 192.545Z" fill="#3241B7"/>
<path d="M173.252 192.545C183.654 192.545 192.092 184.222 192.092 173.961C192.092 163.7 183.654 155.376 173.252 155.376C162.851 155.362 154.413 163.686 154.413 173.947C154.413 184.222 162.851 192.545 173.252 192.545Z" fill="url(#paint0_linear)"/>
<path d="M173.252 247.407H227.938C228.011 247.407 228.098 247.392 228.171 247.392C228.244 247.392 228.331 247.407 228.404 247.407C238.805 247.407 247.243 239.083 247.243 228.822C247.243 218.561 238.805 210.238 228.404 210.238C228.331 210.238 228.244 210.252 228.171 210.252C228.098 210.252 228.011 210.238 227.938 210.238H173.252C162.851 210.223 154.413 218.547 154.413 228.808C154.413 239.083 162.851 247.407 173.252 247.407Z" fill="#432AB7"/>
<path d="M173.252 247.407H227.938C228.011 247.407 228.098 247.392 228.171 247.392C228.244 247.392 228.331 247.407 228.404 247.407C238.805 247.407 247.243 239.083 247.243 228.822C247.243 218.561 238.805 210.238 228.404 210.238C228.331 210.238 228.244 210.252 228.171 210.252C228.098 210.252 228.011 210.238 227.938 210.238H173.252C162.851 210.223 154.413 218.547 154.413 228.808C154.413 239.083 162.851 247.407 173.252 247.407Z" fill="url(#paint1_linear)"/>
<path d="M173.252 319.95C162.851 319.95 154.413 328.274 154.413 338.535C154.413 348.796 162.851 357.119 173.252 357.119C183.654 357.119 192.092 348.796 192.092 338.535C192.092 328.274 183.669 319.95 173.252 319.95Z" fill="#7D32A3"/>
<path d="M173.252 319.95C162.851 319.95 154.413 328.274 154.413 338.535C154.413 348.796 162.851 357.119 173.252 357.119C183.654 357.119 192.092 348.796 192.092 338.535C192.092 328.274 183.669 319.95 173.252 319.95Z" fill="url(#paint2_linear)"/>
<path d="M228.418 137.679H283.584C293.986 137.679 302.424 129.356 302.424 119.095C302.424 108.819 293.986 100.496 283.584 100.496H228.418C218.017 100.496 209.579 108.819 209.579 119.08C209.579 129.356 218.017 137.679 228.418 137.679Z" fill="#438DBF"/>
<path d="M228.418 137.679H283.584C293.986 137.679 302.424 129.356 302.424 119.095C302.424 108.819 293.986 100.496 283.584 100.496H228.418C218.017 100.496 209.579 108.819 209.579 119.08C209.579 129.356 218.017 137.679 228.418 137.679Z" fill="url(#paint3_linear)"/>
<path d="M283.583 374.817H228.417C218.015 374.817 209.578 383.14 209.578 393.401C209.578 400.204 213.302 406.145 218.83 409.388C219.31 409.661 219.79 409.919 220.299 410.163C222.758 411.326 225.508 412 228.432 412H283.597C293.999 412 302.437 403.676 302.437 393.416C302.422 383.14 293.985 374.817 283.583 374.817Z" fill="#342ABC"/>
<path d="M283.583 374.817H228.417C218.015 374.817 209.578 383.14 209.578 393.401C209.578 400.204 213.302 406.145 218.83 409.388C219.31 409.661 219.79 409.919 220.299 410.163C222.758 411.326 225.508 412 228.432 412H283.597C293.999 412 302.437 403.676 302.437 393.416C302.422 383.14 293.985 374.817 283.583 374.817Z" fill="url(#paint4_linear)"/>
<path d="M338.737 192.545C349.139 192.545 357.577 184.222 357.577 173.961C357.577 163.7 349.139 155.376 338.737 155.376C328.335 155.376 319.897 163.7 319.897 173.961C319.897 184.222 328.335 192.545 338.737 192.545Z" fill="#57C6CE"/>
<path d="M338.737 192.545C349.139 192.545 357.577 184.222 357.577 173.961C357.577 163.7 349.139 155.376 338.737 155.376C328.335 155.376 319.897 163.7 319.897 173.961C319.897 184.222 328.335 192.545 338.737 192.545Z" fill="url(#paint5_linear)"/>
<path d="M346.08 266.553C345.512 266.323 344.945 266.108 344.348 265.922C343.17 265.563 341.934 265.304 340.668 265.175C340.028 265.118 339.388 265.075 338.748 265.075H283.582C273.18 265.075 264.742 273.398 264.742 283.659C264.742 293.92 273.18 302.244 283.582 302.244H338.748C339.402 302.244 340.042 302.215 340.668 302.143C350.168 301.196 357.587 293.275 357.587 283.645C357.587 275.982 352.844 269.366 346.08 266.553Z" fill="#50B3C8"/>
<path d="M346.08 266.553C345.512 266.323 344.945 266.108 344.348 265.922C343.17 265.563 341.934 265.304 340.668 265.175C340.028 265.118 339.388 265.075 338.748 265.075H283.582C273.18 265.075 264.742 273.398 264.742 283.659C264.742 293.92 273.18 302.244 283.582 302.244H338.748C339.402 302.244 340.042 302.215 340.668 302.143C350.168 301.196 357.587 293.275 357.587 283.645C357.587 275.982 352.844 269.366 346.08 266.553Z" fill="url(#paint6_linear)"/>
<path d="M338.737 319.95C328.335 319.95 319.897 328.274 319.897 338.535C319.897 348.796 328.335 357.119 338.737 357.119C349.139 357.119 357.577 348.796 357.577 338.535C357.577 328.274 349.153 319.95 338.737 319.95Z" fill="#3F83BD"/>
<path d="M338.737 319.95C328.335 319.95 319.897 328.274 319.897 338.535C319.897 348.796 328.335 357.119 338.737 357.119C349.139 357.119 357.577 348.796 357.577 338.535C357.577 328.274 349.153 319.95 338.737 319.95Z" fill="url(#paint7_linear)"/>
<defs>
<linearGradient id="paint0_linear" x1="192.077" y1="177.729" x2="154.413" y2="177.729" gradientUnits="userSpaceOnUse">
<stop stop-color="#7A95F9"/>
<stop offset="1" stop-color="#7A95F9" stop-opacity="0"/>
</linearGradient>
<linearGradient id="paint1_linear" x1="247.206" y1="232.591" x2="154.413" y2="232.591" gradientUnits="userSpaceOnUse">
<stop stop-color="#986AF9"/>
<stop offset="1" stop-color="#986AF9" stop-opacity="0"/>
</linearGradient>
<linearGradient id="paint2_linear" x1="192.077" y1="342.303" x2="154.413" y2="342.303" gradientUnits="userSpaceOnUse">
<stop stop-color="#DD7AF3"/>
<stop offset="1" stop-color="#DD7AF3" stop-opacity="0"/>
</linearGradient>
<linearGradient id="paint3_linear" x1="302.387" y1="122.857" x2="209.579" y2="122.857" gradientUnits="userSpaceOnUse">
<stop stop-color="#98E8FB"/>
<stop offset="1" stop-color="#98E8FB" stop-opacity="0"/>
</linearGradient>
<linearGradient id="paint4_linear" x1="302.4" y1="397.178" x2="209.578" y2="397.178" gradientUnits="userSpaceOnUse">
<stop stop-color="#7E6AFA"/>
<stop offset="1" stop-color="#7E6AFA" stop-opacity="0"/>
</linearGradient>
<linearGradient id="paint5_linear" x1="357.562" y1="177.729" x2="319.898" y2="177.729" gradientUnits="userSpaceOnUse">
<stop stop-color="#B6FCFD"/>
<stop offset="1" stop-color="#B6FCFD" stop-opacity="0"/>
</linearGradient>
<linearGradient id="paint6_linear" x1="357.55" y1="287.428" x2="264.742" y2="287.428" gradientUnits="userSpaceOnUse">
<stop stop-color="#ADF8FC"/>
<stop offset="1" stop-color="#ADF8FC" stop-opacity="0"/>
</linearGradient>
<linearGradient id="paint7_linear" x1="357.562" y1="342.303" x2="319.898" y2="342.303" gradientUnits="userSpaceOnUse">
<stop stop-color="#92E2FB"/>
<stop offset="1" stop-color="#92E2FB" stop-opacity="0"/>
</linearGradient>
</defs>
</svg>
